<?xml version="1.0" encoding="utf-8"?>
<svg version="1.1" xmlns:xlink="http://www.w3.org/1999/xlink" width="16px" height="16px" viewBox="182 369  16 16" xmlns="http://www.w3.org/2000/svg">
  <path d="M 190 369  C 194.48 369  198 372.52  198 377  C 198 381.48  194.48 385  190 385  C 185.52 385  182 381.48  182 377  C 182 372.52  185.52 369  190 369  Z " fill-rule="nonzero" fill="#ffffff" stroke="none" />
  <path d="M 190 369.5  C 194.2 369.5  197.5 372.8  197.5 377  C 197.5 381.2  194.2 384.5  190 384.5  C 185.8 384.5  182.5 381.2  182.5 377  C 182.5 372.8  185.8 369.5  190 369.5  Z " stroke-width="1" stroke="#8c8c8c" fill="none" />
  <path d="M 190 381  C 187.76 381  186 379.24  186 377  C 186 374.76  187.76 373  190 373  C 192.24 373  194 374.76  194 377  C 194 379.24  192.24 381  190 381  " fill-rule="nonzero" fill="#8c8c8c" stroke="none" />
</svg>