<?xml version="1.0" encoding="utf-8"?>
<svg version="1.1" xmlns:xlink="http://www.w3.org/1999/xlink" width="16px" height="16px" viewBox="182 399  16 16" xmlns="http://www.w3.org/2000/svg">
  <path d="M 190 399  C 194.48 399  198 402.52  198 407  C 198 411.48  194.48 415  190 415  C 185.52 415  182 411.48  182 407  C 182 402.52  185.52 399  190 399  Z " fill-rule="nonzero" fill="#ffffff" stroke="none" />
  <path d="M 190 399.5  C 194.2 399.5  197.5 402.8  197.5 407  C 197.5 411.2  194.2 414.5  190 414.5  C 185.8 414.5  182.5 411.2  182.5 407  C 182.5 402.8  185.8 399.5  190 399.5  Z " stroke-width="1" stroke="#8c8c8c" fill="none" />
  <path d="M 190 411  C 187.76 411  186 409.24  186 407  C 186 404.76  187.76 403  190 403  C 192.24 403  194 404.76  194 407  C 194 409.24  192.24 411  190 411  " fill-rule="nonzero" fill="#8c8c8c" stroke="none" />
</svg>