<?xml version="1.0" encoding="utf-8"?>
<svg version="1.1" xmlns:xlink="http://www.w3.org/1999/xlink" width="16px" height="16px" viewBox="338 174  16 16" xmlns="http://www.w3.org/2000/svg">
  <path d="M 346 174  C 350.48 174  354 177.52  354 182  C 354 186.48  350.48 190  346 190  C 341.52 190  338 186.48  338 182  C 338 177.52  341.52 174  346 174  Z " fill-rule="nonzero" fill="#f0f0f0" stroke="none" />
  <path d="M 346 174.5  C 350.2 174.5  353.5 177.8  353.5 182  C 353.5 186.2  350.2 189.5  346 189.5  C 341.8 189.5  338.5 186.2  338.5 182  C 338.5 177.8  341.8 174.5  346 174.5  Z " stroke-width="1" stroke="#8c8c8c" fill="none" />
  <path d="M 346 186  C 343.76 186  342 184.24  342 182  C 342 179.76  343.76 178  346 178  C 348.24 178  350 179.76  350 182  C 350 184.24  348.24 186  346 186  " fill-rule="nonzero" fill="#8c8c8c" stroke="none" />
</svg>