<?xml version="1.0" encoding="utf-8"?>
<svg version="1.1" xmlns:xlink="http://www.w3.org/1999/xlink" width="10px" height="29px" xmlns="http://www.w3.org/2000/svg">
  <g transform="matrix(1 0 0 1 -1006 116 )">
    <path d="M 1011 -116  C 1013.8 -116  1016 -109.62  1016 -101.5  C 1016 -93.38  1013.8 -87  1011 -87  C 1008.2 -87  1006 -93.38  1006 -101.5  C 1006 -109.62  1008.2 -116  1011 -116  Z " fill-rule="nonzero" fill="#ffffff" stroke="none" />
    <path d="M 1011 -115.5  C 1013.52 -115.5  1015.5 -109.34  1015.5 -101.5  C 1015.5 -93.66  1013.52 -87.5  1011 -87.5  C 1008.48 -87.5  1006.5 -93.66  1006.5 -101.5  C 1006.5 -109.34  1008.48 -115.5  1011 -115.5  Z " stroke-width="1" stroke="#797979" fill="none" />
  </g>
</svg>